<svg width="40" height="40" viewBox="0 0 40 40" fill="none" xmlns="http://www.w3.org/2000/svg">
<g id="elephant 1" clip-path="url(#clip0_106_1656)">
<g id="Group">
<path id="Vector" d="M26.1878 8.29102L35.656 12.0905L39.5599 20.2816L34.3311 36.5522L22.5283 18.7492V15.055L26.1878 8.29102Z" fill="#282828"/>
<g id="Group_2">
<path id="Vector_2" d="M35.6557 12.0906L31.7188 10.5107L36.3756 20.2816L32.1863 33.3176L34.3307 36.5523L39.5595 20.2816L35.6557 12.0906Z" fill="#424242"/>
</g>
<path id="Vector_3" d="M3.39302 29.8099L2.61426 26.6135L5.89178 15.2109L7.65142 16.0468L5.62745 27.303L3.39302 29.8099Z" fill="#6A6A6A"/>
<path id="Vector_4" d="M2.61426 13.8735V8.97L9.34492 3.00781L16.6319 20.6158L2.61426 13.8735Z" fill="#282828"/>
<path id="Vector_5" d="M9.34473 3.00781H24.2524L27.0893 10.7531L16.6317 20.6158L9.34473 3.00781Z" fill="#6A6A6A"/>
<path id="Vector_6" d="M24.2528 3.00781H21.0689L23.9058 10.7531L15.7383 18.4559L16.6321 20.6157L27.0897 10.7531L24.2528 3.00781Z" fill="#5F5E5E"/>
<path id="Vector_7" d="M2.61426 13.873L5.89178 15.4495L2.61426 26.6129V13.873Z" fill="black"/>
<path id="Vector_8" d="M3.39319 29.8093L0 29.0849L2.61443 26.4863V26.6128L3.39319 29.8093Z" fill="#282828"/>
<path id="Vector_9" d="M2.61443 26.487L0 25.0029V29.0856L2.61443 26.487Z" fill="#6A6A6A"/>
<path id="Vector_10" d="M13.3887 19.0555V36.5521L27.153 25.7242L22.5287 18.749L16.6324 20.6158L13.3887 19.0555Z" fill="#6A6A6A"/>
<path id="Vector_11" d="M22.5281 18.7489V15.0547L16.6318 20.6156L22.5281 18.7489Z" fill="black"/>
<path id="Vector_12" d="M13.3887 36.5524H17.6502L19.9978 31.3438L13.3887 36.5524Z" fill="#282828"/>
<path id="Vector_13" d="M34.3311 36.5519H39.5598V20.2812L34.3311 36.5519Z" fill="black"/>
</g>
</g>
<defs>
<clipPath id="clip0_106_1656">
<rect width="39.5599" height="39.5599" fill="white"/>
</clipPath>
</defs>
</svg>
