<svg width="71" height="34" viewBox="0 0 71 34" fill="none" xmlns="http://www.w3.org/2000/svg">
<g id="Flat Planet">
<path d="M2.20021 6.54433H12.0633V9.18297H2.20021V6.54433ZM12.3726 0.757505V3.41435H2.2366L3.80159 1.83116V14.4057H0.708008V0.757505H12.3726Z" fill="black"/>
<path d="M14.1903 0.393555H17.2292V14.4057H14.1903V0.393555Z" fill="black"/>
<path d="M29.0025 14.4057L28.5658 10.6206L29.0571 9.23756L28.5658 7.87275L29.0025 4.05126H32.1507L31.5501 9.23756L32.1507 14.4057H29.0025ZM29.8032 9.23756C29.6091 10.3294 29.2512 11.2878 28.7295 12.1128C28.22 12.9256 27.571 13.5564 26.7824 14.0053C26.006 14.4542 25.1325 14.6786 24.1619 14.6786C23.155 14.6786 22.2633 14.4542 21.4869 14.0053C20.7105 13.5443 20.1039 12.9074 19.6672 12.0946C19.2425 11.2696 19.0302 10.3173 19.0302 9.23756C19.0302 8.14571 19.2425 7.19337 19.6672 6.38055C20.1039 5.55559 20.7105 4.91868 21.4869 4.46981C22.2633 4.0088 23.155 3.7783 24.1619 3.7783C25.1325 3.7783 26.006 4.00273 26.7824 4.45161C27.571 4.90048 28.2261 5.53739 28.7477 6.36235C29.2694 7.17517 29.6212 8.13358 29.8032 9.23756ZM22.1056 9.23756C22.1056 9.84415 22.2269 10.3779 22.4696 10.8389C22.7243 11.3 23.0701 11.6639 23.5068 11.9308C23.9436 12.1856 24.447 12.3129 25.0172 12.3129C25.5874 12.3129 26.1212 12.1856 26.6186 11.9308C27.1281 11.6639 27.577 11.3 27.9652 10.8389C28.3534 10.3779 28.6567 9.84415 28.8751 9.23756C28.6567 8.63098 28.3534 8.09718 27.9652 7.63618C27.577 7.16304 27.1281 6.79909 26.6186 6.54433C26.1212 6.27743 25.5874 6.14398 25.0172 6.14398C24.447 6.14398 23.9436 6.27743 23.5068 6.54433C23.0701 6.79909 22.7243 7.16304 22.4696 7.63618C22.2269 8.09718 22.1056 8.63098 22.1056 9.23756Z" fill="black"/>
<path d="M33.1272 6.34415V4.99753L35.2927 4.28783L36.5848 1.32163H38.3317V4.05126H42.9175V6.34415H38.3317V10.111C38.3317 10.9117 38.4955 11.4759 38.8231 11.8034C39.1627 12.1188 39.7451 12.2766 40.57 12.2766C41.0917 12.2766 41.5527 12.228 41.953 12.131C42.3534 12.0339 42.7355 11.8944 43.0995 11.7124V14.0781C42.7477 14.2237 42.2806 14.3571 41.6983 14.4785C41.1159 14.6119 40.5154 14.6786 39.8967 14.6786C38.817 14.6786 37.9374 14.5088 37.2581 14.1691C36.5908 13.8173 36.0934 13.332 35.7659 12.7133C35.4504 12.0946 35.2927 11.3727 35.2927 10.5478V6.34415H33.1272Z" fill="black"/>
<path d="M8.1508 19.7462C9.23053 19.7462 10.1647 19.9343 10.9532 20.3104C11.7418 20.6865 12.3423 21.2142 12.7548 21.8936C13.1794 22.5729 13.3917 23.3615 13.3917 24.2592C13.3917 25.157 13.1794 25.9455 12.7548 26.6249C12.3423 27.2922 11.7418 27.8199 10.9532 28.2081C10.1647 28.5842 9.23053 28.7722 8.1508 28.7722H2.12742V26.2246H7.98703C8.7028 26.2246 9.26086 26.0487 9.6612 25.6968C10.0737 25.345 10.2799 24.8658 10.2799 24.2592C10.2799 23.6405 10.0737 23.1613 9.6612 22.8216C9.26086 22.4698 8.7028 22.2939 7.98703 22.2939H2.40038L3.80159 20.8199V33.3944H0.708008V19.7462H8.1508Z" fill="black"/>
<path d="M14.9366 19.3823H17.9756V33.3944H14.9366V19.3823Z" fill="black"/>
<path d="M29.7489 33.3944L29.3121 29.6093L29.8035 28.2263L29.3121 26.8615L29.7489 23.04H32.8971L32.2965 28.2263L32.8971 33.3944H29.7489ZM30.5496 28.2263C30.3555 29.3182 29.9976 30.2766 29.4759 31.1015C28.9664 31.9143 28.3173 32.5452 27.5288 32.9941C26.7523 33.4429 25.8789 33.6674 24.9083 33.6674C23.9014 33.6674 23.0097 33.4429 22.2333 32.9941C21.4569 32.5331 20.8503 31.8961 20.4135 31.0833C19.9889 30.2584 19.7766 29.306 19.7766 28.2263C19.7766 27.1345 19.9889 26.1821 20.4135 25.3693C20.8503 24.5443 21.4569 23.9074 22.2333 23.4586C23.0097 22.9975 23.9014 22.767 24.9083 22.767C25.8789 22.767 26.7523 22.9915 27.5288 23.4404C28.3173 23.8892 28.9724 24.5261 29.4941 25.3511C30.0158 26.1639 30.3676 27.1223 30.5496 28.2263ZM22.852 28.2263C22.852 28.8329 22.9733 29.3667 23.216 29.8277C23.4707 30.2887 23.8165 30.6526 24.2532 30.9195C24.69 31.1743 25.1934 31.3017 25.7636 31.3017C26.3338 31.3017 26.8676 31.1743 27.365 30.9195C27.8745 30.6526 28.3234 30.2887 28.7116 29.8277C29.0998 29.3667 29.4031 28.8329 29.6215 28.2263C29.4031 27.6197 29.0998 27.0859 28.7116 26.6249C28.3234 26.1518 27.8745 25.7878 27.365 25.5331C26.8676 25.2662 26.3338 25.1327 25.7636 25.1327C25.1934 25.1327 24.69 25.2662 24.2532 25.5331C23.8165 25.7878 23.4707 26.1518 23.216 26.6249C22.9733 27.0859 22.852 27.6197 22.852 28.2263Z" fill="black"/>
<path d="M34.4377 23.04H37.4767L38.1318 26.9889V33.3944H35.0928V26.5339L34.4377 23.04ZM42.0807 22.767C43.0634 22.767 43.9005 22.9672 44.592 23.3676C45.2835 23.7558 45.8112 24.3138 46.1752 25.0417C46.5391 25.7696 46.7211 26.6371 46.7211 27.644V33.3944H43.6821V28.0989C43.6821 27.1648 43.4576 26.4611 43.0088 25.988C42.5599 25.5027 41.9048 25.2601 41.0434 25.2601C40.4611 25.2601 39.9455 25.3936 39.4967 25.6605C39.0599 25.9152 38.7202 26.2731 38.4776 26.7341C38.2471 27.1951 38.1318 27.7471 38.1318 28.3901L37.131 27.8624C37.2523 26.7705 37.5434 25.8485 38.0044 25.0963C38.4655 24.3442 39.0478 23.7679 39.7514 23.3676C40.4551 22.9672 41.2315 22.767 42.0807 22.767Z" fill="black"/>
<path d="M54.703 33.6674C53.4777 33.6674 52.3797 33.4429 51.4092 32.9941C50.4508 32.5331 49.6926 31.8901 49.1345 31.0651C48.5886 30.2402 48.3156 29.2818 48.3156 28.1899C48.3156 27.1102 48.5765 26.1639 49.0981 25.3511C49.6319 24.5383 50.3598 23.9074 51.2818 23.4586C52.2038 22.9975 53.2532 22.767 54.43 22.767C55.631 22.767 56.6622 23.0339 57.5236 23.5677C58.3849 24.0894 59.0461 24.8294 59.5071 25.7878C59.9803 26.7462 60.2168 27.8745 60.2168 29.1726H50.7541V27.1527H58.5791L57.3962 27.8806C57.3477 27.274 57.196 26.7584 56.9413 26.3338C56.6986 25.9092 56.365 25.5816 55.9404 25.3511C55.5158 25.1206 55.0184 25.0053 54.4482 25.0053C53.8295 25.0053 53.2896 25.1327 52.8286 25.3875C52.3797 25.6301 52.0279 25.9759 51.7732 26.4247C51.5305 26.8615 51.4092 27.3771 51.4092 27.9715C51.4092 28.6873 51.5669 29.3 51.8824 29.8095C52.1978 30.319 52.6588 30.7072 53.2654 30.9741C53.8719 31.241 54.6059 31.3745 55.4673 31.3745C56.2437 31.3745 57.0262 31.2653 57.8148 31.0469C58.6033 30.8164 59.313 30.4949 59.9439 30.0825V32.1206C59.2645 32.6058 58.4699 32.988 57.56 33.267C56.6622 33.5339 55.7099 33.6674 54.703 33.6674Z" fill="black"/>
<path d="M60.7256 25.3329V23.9863L62.8912 23.2766L64.1832 20.3104H65.9301V23.04H70.5159V25.3329H65.9301V29.0998C65.9301 29.9005 66.0939 30.4646 66.4215 30.7922C66.7612 31.1076 67.3435 31.2653 68.1684 31.2653C68.6901 31.2653 69.1511 31.2168 69.5515 31.1197C69.9518 31.0227 70.334 30.8831 70.6979 30.7012V33.0669C70.3461 33.2124 69.879 33.3459 69.2967 33.4672C68.7144 33.6007 68.1139 33.6674 67.4951 33.6674C66.4154 33.6674 65.5359 33.4975 64.8565 33.1578C64.1892 32.806 63.6918 32.3208 63.3643 31.702C63.0489 31.0833 62.8912 30.3615 62.8912 29.5365V25.3329H60.7256Z" fill="black"/>
</g>
</svg>
