<svg width="205" height="25" viewBox="0 0 205 25" fill="none" xmlns="http://www.w3.org/2000/svg">
<path d="M3.20215 10.7877H20.1203V15.3138H3.20215V10.7877ZM20.6509 0.86159V5.41888H3.26458L5.94901 2.70323V24.2723H0.642578V0.86159H20.6509Z" fill="black"/>
<path d="M23.7687 0.237305H28.9815V24.2723H23.7687V0.237305Z" fill="black"/>
<path d="M49.1762 24.2723L48.427 17.7797L49.2698 15.4074L48.427 13.0664L49.1762 6.51138H54.5762L53.5462 15.4074L54.5762 24.2723H49.1762ZM50.5496 15.4074C50.2166 17.2803 49.6028 18.9243 48.708 20.3393C47.834 21.7335 46.7206 22.8156 45.368 23.5856C44.0362 24.3555 42.5379 24.7405 40.8732 24.7405C39.146 24.7405 37.6165 24.3555 36.2847 23.5856C34.9529 22.7948 33.9124 21.7023 33.1632 20.3081C32.4349 18.893 32.0707 17.2595 32.0707 15.4074C32.0707 13.5346 32.4349 11.901 33.1632 10.5068C33.9124 9.09176 34.9529 7.99926 36.2847 7.2293C37.6165 6.43854 39.146 6.04316 40.8732 6.04316C42.5379 6.04316 44.0362 6.42814 45.368 7.19809C46.7206 7.96804 47.8444 9.06054 48.7392 10.4756C49.634 11.8698 50.2374 13.5138 50.5496 15.4074ZM37.3459 15.4074C37.3459 16.4479 37.554 17.3635 37.9702 18.1543C38.4072 18.9451 39.0003 19.5694 39.7494 20.0272C40.4986 20.4642 41.3622 20.6827 42.3402 20.6827C43.3183 20.6827 44.2339 20.4642 45.0871 20.0272C45.9611 19.5694 46.731 18.9451 47.3969 18.1543C48.0629 17.3635 48.5831 16.4479 48.9577 15.4074C48.5831 14.367 48.0629 13.4514 47.3969 12.6606C46.731 11.849 45.9611 11.2247 45.0871 10.7877C44.2339 10.3299 43.3183 10.101 42.3402 10.101C41.3622 10.101 40.4986 10.3299 39.7494 10.7877C39.0003 11.2247 38.4072 11.849 37.9702 12.6606C37.554 13.4514 37.3459 14.367 37.3459 15.4074Z" fill="black"/>
<path d="M56.2513 10.4444V8.13452L59.9658 6.91716L62.182 1.82923H65.1786V6.51138H73.0446V10.4444H65.1786V16.9057C65.1786 18.2792 65.4595 19.2468 66.0214 19.8087C66.6041 20.3497 67.6029 20.6202 69.018 20.6202C69.9128 20.6202 70.7035 20.537 71.3903 20.3705C72.077 20.204 72.7325 19.9647 73.3568 19.6526V23.7104C72.7533 23.9602 71.9521 24.1891 70.9532 24.3972C69.9544 24.6261 68.9243 24.7405 67.863 24.7405C66.011 24.7405 64.5023 24.4492 63.337 23.8665C62.1924 23.263 61.3392 22.4307 60.7774 21.3694C60.2363 20.3081 59.9658 19.0699 59.9658 17.6549V10.4444H56.2513Z" fill="black"/>
<path d="M97.3281 0.86159C99.1801 0.86159 100.782 1.18414 102.135 1.82923C103.488 2.47433 104.518 3.37954 105.225 4.54488C105.954 5.71021 106.318 7.06283 106.318 8.60273C106.318 10.1426 105.954 11.4953 105.225 12.6606C104.518 13.8051 103.488 14.7103 102.135 15.3762C100.782 16.0213 99.1801 16.3439 97.3281 16.3439H86.9962V11.9739H97.0472C98.2749 11.9739 99.2322 11.6721 99.9189 11.0687C100.626 10.4652 100.98 9.64321 100.98 8.60273C100.98 7.54145 100.626 6.71947 99.9189 6.1368C99.2322 5.53333 98.2749 5.23159 97.0472 5.23159H87.4644L89.8679 2.70323V24.2723H84.5615V0.86159H97.3281Z" fill="black"/>
<path d="M108.968 0.237305H114.181V24.2723H108.968V0.237305Z" fill="black"/>
<path d="M134.375 24.2723L133.626 17.7797L134.469 15.4074L133.626 13.0664L134.375 6.51138H139.775L138.745 15.4074L139.775 24.2723H134.375ZM135.749 15.4074C135.416 17.2803 134.802 18.9243 133.907 20.3393C133.033 21.7335 131.92 22.8156 130.567 23.5856C129.235 24.3555 127.737 24.7405 126.072 24.7405C124.345 24.7405 122.816 24.3555 121.484 23.5856C120.152 22.7948 119.112 21.7023 118.362 20.3081C117.634 18.893 117.27 17.2595 117.27 15.4074C117.27 13.5346 117.634 11.901 118.362 10.5068C119.112 9.09176 120.152 7.99926 121.484 7.2293C122.816 6.43854 124.345 6.04316 126.072 6.04316C127.737 6.04316 129.235 6.42814 130.567 7.19809C131.92 7.96804 133.044 9.06054 133.938 10.4756C134.833 11.8698 135.437 13.5138 135.749 15.4074ZM122.545 15.4074C122.545 16.4479 122.753 17.3635 123.169 18.1543C123.606 18.9451 124.199 19.5694 124.949 20.0272C125.698 20.4642 126.561 20.6827 127.539 20.6827C128.517 20.6827 129.433 20.4642 130.286 20.0272C131.16 19.5694 131.93 18.9451 132.596 18.1543C133.262 17.3635 133.782 16.4479 134.157 15.4074C133.782 14.367 133.262 13.4514 132.596 12.6606C131.93 11.849 131.16 11.2247 130.286 10.7877C129.433 10.3299 128.517 10.101 127.539 10.101C126.561 10.101 125.698 10.3299 124.949 10.7877C124.199 11.2247 123.606 11.849 123.169 12.6606C122.753 13.4514 122.545 14.367 122.545 15.4074Z" fill="black"/>
<path d="M142.418 6.51138H147.631L148.755 13.2849V24.2723H143.542V12.5045L142.418 6.51138ZM155.528 6.04316C157.214 6.04316 158.65 6.38652 159.836 7.07323C161.022 7.73914 161.927 8.69638 162.551 9.94495C163.176 11.1935 163.488 12.6814 163.488 14.4086V24.2723H158.275V15.1889C158.275 13.5866 157.89 12.3797 157.12 11.5681C156.35 10.7357 155.226 10.3195 153.749 10.3195C152.75 10.3195 151.866 10.5484 151.096 11.0062C150.347 11.4432 149.764 12.0571 149.348 12.8479C148.952 13.6386 148.755 14.5855 148.755 15.6884L147.038 14.7832C147.246 12.9103 147.745 11.3288 148.536 10.0386C149.327 8.7484 150.326 7.75995 151.533 7.07323C152.74 6.38652 154.071 6.04316 155.528 6.04316Z" fill="black"/>
<path d="M177.179 24.7405C175.077 24.7405 173.194 24.3555 171.529 23.5856C169.885 22.7948 168.585 21.6919 167.628 20.2769C166.691 18.8618 166.223 17.2179 166.223 15.345C166.223 13.493 166.67 11.8698 167.565 10.4756C168.481 9.08135 169.729 7.99926 171.311 7.2293C172.892 6.43854 174.692 6.04316 176.711 6.04316C178.771 6.04316 180.54 6.50097 182.017 7.41659C183.495 8.3114 184.629 9.58078 185.42 11.2247C186.231 12.8687 186.637 14.804 186.637 17.0306H170.406V13.5658H183.828L181.799 14.8144C181.716 13.7739 181.455 12.8895 181.018 12.1612C180.602 11.4328 180.03 10.871 179.302 10.4756C178.573 10.0802 177.72 9.88252 176.742 9.88252C175.681 9.88252 174.755 10.101 173.964 10.538C173.194 10.9542 172.591 11.5473 172.154 12.3172C171.737 13.0664 171.529 13.9508 171.529 14.9704C171.529 16.1982 171.8 17.2491 172.341 18.1231C172.882 18.9971 173.673 19.663 174.713 20.1208C175.754 20.5786 177.013 20.8075 178.49 20.8075C179.822 20.8075 181.164 20.6202 182.517 20.2457C183.869 19.8503 185.087 19.2988 186.169 18.5913V22.0873C185.004 22.9197 183.64 23.5752 182.08 24.0538C180.54 24.5116 178.906 24.7405 177.179 24.7405Z" fill="black"/>
<path d="M187.51 10.4444V8.13452L191.224 6.91716L193.441 1.82923H196.437V6.51138H204.303V10.4444H196.437V16.9057C196.437 18.2792 196.718 19.2468 197.28 19.8087C197.863 20.3497 198.861 20.6202 200.276 20.6202C201.171 20.6202 201.962 20.537 202.649 20.3705C203.335 20.204 203.991 19.9647 204.615 19.6526V23.7104C204.012 23.9602 203.211 24.1891 202.212 24.3972C201.213 24.6261 200.183 24.7405 199.122 24.7405C197.27 24.7405 195.761 24.4492 194.595 23.8665C193.451 23.263 192.598 22.4307 192.036 21.3694C191.495 20.3081 191.224 19.0699 191.224 17.6549V10.4444H187.51Z" fill="black"/>
</svg>
