<svg width="1920" height="485" viewBox="0 0 1920 485" fill="none" xmlns="http://www.w3.org/2000/svg">
<path d="M-15.5 190C5.33333 163.5 64.4 113.9 134 127.5C203.6 141.1 316.667 293.167 364.5 367.5C397.167 411.5 475.3 496.1 526.5 482.5C590.5 465.5 785 422.5 992.5 444C1158.5 461.2 1075.33 358.5 1013 305C1001.83 258.667 990.3 156.1 1033.5 116.5C1087.5 67.0001 1313.5 -15.9999 1476.5 4.50011C1639.5 25.0001 1460.5 298.5 1582.5 347C1680.1 385.8 1830.17 390.5 1893 388C1902.17 384.667 1926.8 368.5 1952 330.5" stroke="#8A4925" stroke-dasharray="10 10"/>
</svg>
