<svg width="375" height="107" viewBox="0 0 375 107" fill="none" xmlns="http://www.w3.org/2000/svg">
<path d="M-29 42.0496C-24.4786 36.2846 -11.6596 25.4943 3.44549 28.4529C18.5505 31.4115 43.089 64.4931 53.4701 80.664C60.5597 90.2361 77.5167 108.64 88.6285 105.682C102.518 101.984 144.73 92.6291 189.763 97.3063C225.789 101.048 207.74 78.7061 194.212 67.0674C191.788 56.9877 189.285 34.6747 198.661 26.0599C210.38 15.2914 259.428 -2.76497 294.804 1.69473C330.179 6.15443 291.331 65.6533 317.809 76.2043C338.99 84.6451 371.559 85.6676 385.195 85.1237C387.185 84.3985 392.531 80.8815 398 72.6148" stroke="#8A4925" stroke-dasharray="10 10"/>
</svg>
